ModelForces
version=1
nRows=4
nColumns=158
inDegrees=no

This file contains the forces exerted on a model during a simulation.

A force is a generalized force, meaning that it can be either a force (N) or a torque (Nm).

Units are S.I. units (second, meters, Newtons, ...)
Angles are in degrees.

endheader
time	glut_med1_r	glut_med2_r	glut_med3_r	glut_min1_r	glut_min2_r	glut_min3_r	semimem_r	semiten_r	bifemlh_r	bifemsh_r	sar_r	add_long_r	add_brev_r	add_mag1_r	add_mag2_r	add_mag3_r	tfl_r	pect_r	grac_r	glut_max1_r	glut_max2_r	glut_max3_r	iliacus_r	psoas_r	quad_fem_r	gem_r	peri_r	rect_fem_r	vas_med_r	vas_int_r	vas_lat_r	med_gas_r	lat_gas_r	soleus_r	tib_post_r	flex_dig_r	flex_hal_r	tib_ant_r	per_brev_r	per_long_r	per_tert_r	ext_dig_r	ext_hal_r	glut_med1_l	glut_med2_l	glut_med3_l	glut_min1_l	glut_min2_l	glut_min3_l	semimem_l	semiten_l	bifemlh_l	bifemsh_l	sar_l	add_long_l	add_brev_l	add_mag1_l	add_mag2_l	add_mag3_l	tfl_l	pect_l	grac_l	glut_max1_l	glut_max2_l	glut_max3_l	iliacus_l	psoas_l	quad_fem_l	gem_l	peri_l	rect_fem_l	vas_med_l	vas_int_l	vas_lat_l	med_gas_l	lat_gas_l	soleus_l	tib_post_l	flex_dig_l	flex_hal_l	tib_ant_l	per_brev_l	per_long_l	per_tert_l	ext_dig_l	ext_hal_l	ercspn_r	ercspn_l	intobl_r	intobl_l	extobl_r	extobl_l	femur_lat_meniscii_r.femur_lat_r.force.X	femur_lat_meniscii_r.femur_lat_r.force.Y	femur_lat_meniscii_r.femur_lat_r.force.Z	femur_lat_meniscii_r.femur_lat_r.torque.X	femur_lat_meniscii_r.femur_lat_r.torque.Y	femur_lat_meniscii_r.femur_lat_r.torque.Z	femur_lat_meniscii_r.meniscus_lat_r.force.X	femur_lat_meniscii_r.meniscus_lat_r.force.Y	femur_lat_meniscii_r.meniscus_lat_r.force.Z	femur_lat_meniscii_r.meniscus_lat_r.torque.X	femur_lat_meniscii_r.meniscus_lat_r.torque.Y	femur_lat_meniscii_r.meniscus_lat_r.torque.Z	femur_med_meniscii_r.femur_med_r.force.X	femur_med_meniscii_r.femur_med_r.force.Y	femur_med_meniscii_r.femur_med_r.force.Z	femur_med_meniscii_r.femur_med_r.torque.X	femur_med_meniscii_r.femur_med_r.torque.Y	femur_med_meniscii_r.femur_med_r.torque.Z	femur_med_meniscii_r.meniscus_med_r.force.X	femur_med_meniscii_r.meniscus_med_r.force.Y	femur_med_meniscii_r.meniscus_med_r.force.Z	femur_med_meniscii_r.meniscus_med_r.torque.X	femur_med_meniscii_r.meniscus_med_r.torque.Y	femur_med_meniscii_r.meniscus_med_r.torque.Z	femur_med_tibia_r.tibia_upper_r.force.X	femur_med_tibia_r.tibia_upper_r.force.Y	femur_med_tibia_r.tibia_upper_r.force.Z	femur_med_tibia_r.tibia_upper_r.torque.X	femur_med_tibia_r.tibia_upper_r.torque.Y	femur_med_tibia_r.tibia_upper_r.torque.Z	femur_med_tibia_r.femur_med_r.force.X	femur_med_tibia_r.femur_med_r.force.Y	femur_med_tibia_r.femur_med_r.force.Z	femur_med_tibia_r.femur_med_r.torque.X	femur_med_tibia_r.femur_med_r.torque.Y	femur_med_tibia_r.femur_med_r.torque.Z	femur_lat_tibia_r.tibia_upper_r.force.X	femur_lat_tibia_r.tibia_upper_r.force.Y	femur_lat_tibia_r.tibia_upper_r.force.Z	femur_lat_tibia_r.tibia_upper_r.torque.X	femur_lat_tibia_r.tibia_upper_r.torque.Y	femur_lat_tibia_r.tibia_upper_r.torque.Z	femur_lat_tibia_r.femur_lat_r.force.X	femur_lat_tibia_r.femur_lat_r.force.Y	femur_lat_tibia_r.femur_lat_r.force.Z	femur_lat_tibia_r.femur_lat_r.torque.X	femur_lat_tibia_r.femur_lat_r.torque.Y	femur_lat_tibia_r.femur_lat_r.torque.Z	aACL_R	pACL_R	aPCL_R	pPCL_R	aMCL_R	mMCL_R	pMCL_R	aLCL_R	mLCL_R	pLCL_R	aPCL_L	pPCL_L	aMCL_L	aLCL_L	ground_prescribedForce_-80_fx	ground_prescribedForce_-80_fy	ground_prescribedForce_-80_fz
      0.74123363	      7.54777982	      5.66563540	      6.06458837	      2.65888204	      3.17888834	      3.19266964	      0.00000000	      3.28737177	      3.71703758	      5.33823365	      1.48240162	      5.61316297	      4.14097838	      2.91886353	      2.45367078	      3.98735436	      2.80814948	      2.23866835	      1.39474320	      3.65599811	      5.55588783	      4.14732850	     22.64739080	     12.96661708	      3.62659949	      2.85428230	      4.08999863	    130.71871818	     41.84452693	     26.63410535	     58.65267588	      0.00000000	      0.00000000	     11.47788926	     13.31622592	      2.56390889	      3.06668951	     12.24878874	      3.86031784	      7.87636852	      9.38022892	      7.85760329	      1.66677654	      7.54777982	      5.66563540	      6.06458837	      2.65888204	      3.17888834	      3.19266964	      8.74500198	      4.08314295	      7.68269453	      7.21587191	      1.51971262	      5.61316297	      4.14097838	      2.91886353	      2.45367078	      3.98735436	      4.09695774	      2.23866835	      1.55867033	      3.65599811	      5.55588783	      4.14732850	     22.64739080	     12.96661708	      3.62659949	      2.85428230	      4.08999863	     10.66695120	      6.59254308	      7.56217109	      8.13137813	     13.95329999	      6.47883880	     31.08668499	     42.35934314	      2.58584623	      2.84120907	      8.45163358	      4.33395040	     12.44656366	      2.00584788	      5.36125378	      1.70180884	     25.00608369	     25.00608369	      8.99995229	      8.99995229	     26.80456624	     26.80456624	    230.70978033	     61.61679820	     47.45180578	    -20.78436855	      5.77247081	     93.94016508	   -230.70978033	    -61.61679820	    -47.45180578	      2.20166056	     -8.33393862	     -0.26529120	    106.48962220	    -35.25884801	    -14.91255758	      5.34325843	     -2.04784613	     43.03080097	   -106.48962220	     35.25884801	     14.91255758	      0.41044144	      1.88165903	     -1.55106905	   -464.43380961	    -47.70868598	     63.97269292	     -1.01881425	      7.41352968	     -1.73832545	    464.43380961	     47.70868598	    -63.97269292	     26.78086955	     -8.16773178	    188.20519050	    -42.47793738	    -17.19223661	    -12.88035155	      0.61523157	     -1.63471635	      0.15271996	     42.47793738	     17.19223661	     12.88035155	     -5.65680147	      1.04873683	     17.25595000	     78.39149653	     27.69561430	    599.01160810	    244.30943662	     14.43089978	      2.11163505	      0.00000000	      0.00000000	      0.00000000	      0.00000000	      0.00000000	      0.00000000	      0.00000001	      0.00000000	     19.10100000	   -108.32880000	      0.00000000
      0.74542706	      7.54766108	      5.66555357	      6.06449970	      2.65884527	      3.17884857	      3.19261952	      0.00000000	      3.28723457	      3.71584571	      5.32037487	      1.47031239	      5.61308096	      4.14092163	      2.91882168	      2.45363476	      3.98728951	      2.80724557	      2.23863719	      1.39236699	      3.65594535	      5.55580742	      4.14726737	     22.64724247	     12.96645033	      3.62654824	      2.85425833	      4.08990218	    130.70895553	     42.00066058	     26.64182489	     58.78670028	      0.00000000	      0.00000000	     11.46485870	     13.28281322	      2.53985543	      3.04207758	     12.27891392	      3.87172842	      7.90464849	      9.40722812	      7.92635763	      1.69421410	      7.54766108	      5.66555357	      6.06449970	      2.65884527	      3.17884857	      3.19261952	      8.74482877	      4.08307933	      7.68255053	      7.21576989	      1.51969170	      5.61308096	      4.14092163	      2.91882168	      2.45363476	      3.98728951	      4.09691764	      2.23863719	      1.55864851	      3.65594535	      5.55580742	      4.14726737	     22.64724247	     12.96645033	      3.62654824	      2.85425833	      4.08990218	     10.66675525	      6.59244571	      7.56205724	      8.13125633	     13.95284445	      6.47862686	     31.08595422	     42.35905826	      2.58245100	      2.83964033	      8.45148620	      4.33386186	     12.44634467	      2.00582201	      5.36286587	      1.70224825	     25.00573708	     25.00573708	      8.99981643	      8.99981643	     26.80444421	     26.80444421	    233.08773494	     61.67306771	     47.21804454	    -20.68961312	      5.82253830	     94.91530052	   -233.08773494	    -61.67306771	    -47.21804454	      2.20033979	     -8.39006306	     -0.29109460	    107.94257856	    -34.99144084	    -14.89711180	      5.34168019	     -2.07239837	     43.60976883	   -107.94257856	     34.99144084	     14.89711180	      0.40736085	      1.89811072	     -1.54356846	   -470.03089501	    -48.39671475	     64.70404523	     -1.03231469	      7.49931382	     -1.75788984	    470.03089501	     48.39671475	    -64.70404523	     27.08950229	     -8.26278796	    190.47458486	    -42.69990193	    -17.22303394	    -12.88569872	      0.61607815	     -1.64068629	      0.15113765	     42.69990193	     17.22303394	     12.88569872	     -5.65963011	      1.05342379	     17.34683593	     77.53825153	     26.74258242	    597.77634289	    241.23736721	     12.10989977	     -0.23983987	      0.00000000	      0.00000000	      0.00000000	      0.00000000	      0.00000000	      0.00000000	      0.00000001	      0.00000000	     19.10100000	   -108.32880000	      0.00000000
      0.74904045	      7.54756379	      5.66548653	      6.06442704	      2.65881514	      3.17881598	      3.19257845	      0.00000000	      3.28578981	      3.71389859	      5.35953681	      1.50204668	      5.61301376	      4.14087513	      2.91878740	      2.45360525	      3.98723637	      2.80959665	      2.23861166	      1.39753272	      3.65590213	      5.55574153	      4.14721729	     22.64712092	     12.96631369	      3.62650625	      2.85423869	      4.08982314	    130.70584735	     41.77871234	     26.60422596	     58.56575009	      0.00000000	      0.00000000	     11.50743098	     13.26462203	      2.52285269	      3.02070178	     12.29464728	      3.87985598	      7.92720184	      9.40650288	      7.97131474	      1.71793680	      7.54756379	      5.66548653	      6.06442704	      2.65881514	      3.17881598	      3.19257845	      8.74468684	      4.08302720	      7.68243254	      7.21568629	      1.51967455	      5.61301376	      4.14087513	      2.91878740	      2.45360525	      3.98723637	      4.09688479	      2.23861166	      1.55863062	      3.65590213	      5.55574153	      4.14721729	     22.64712092	     12.96631369	      3.62650625	      2.85423869	      4.08982314	     10.66659470	      6.59236592	      7.56196395	      8.13115653	     13.95247101	      6.47845312	     31.08535539	     42.35882483	      2.57950538	      2.83828617	      8.45136543	      4.33378931	     12.44616520	      2.00580080	      5.36426636	      1.70262908	     25.00545306	     25.00545306	      8.99970511	      8.99970511	     26.80434421	     26.80434421	    228.08500089	     61.42205992	     47.76065182	    -20.90643895	      5.71727123	     92.86390542	   -228.08500089	    -61.42205992	    -47.76065182	      2.19932746	     -8.27178782	     -0.24131670	    105.26592621	    -35.47516155	    -14.79836044	      5.29340406	     -2.02657613	     42.54295348	   -105.26592621	     35.47516155	     14.79836044	      0.41375356	      1.86443407	     -1.55724759	   -464.00997138	    -47.64941991	     63.88034261	     -1.01769626	      7.40945282	     -1.73705031	    464.00997138	     47.64941991	    -63.88034261	     26.74221875	     -8.16144623	    188.03227680	    -41.53177807	    -16.87157117	    -12.67702673	      0.60413304	     -1.60129929	      0.15164274	     41.53177807	     16.87157117	     12.67702673	     -5.56644804	      1.02629132	     16.87088612	     79.06258202	     28.50727576	    600.39798073	    247.45880228	     16.69502913	      4.43278185	      0.00000000	      0.00000000	      0.00000000	      0.00000000	      0.00000000	      0.00000000	      0.00000001	      0.00000000	     19.10100000	   -108.32880000	      0.00000000
      0.75265385	      7.54747092	      5.66542253	      6.06435769	      2.65878638	      3.17878487	      3.19253924	      0.00000000	      3.28770256	      3.71451954	      5.32262394	      1.47026323	      5.61294961	      4.14083074	      2.91875467	      2.45357709	      3.98718565	      2.81194538	      2.23858729	      1.39269002	      3.65586086	      5.55567863	      4.14716947	     22.64700489	     12.96618326	      3.62646617	      2.85421994	      4.08974770	    130.70629395	     42.02915915	     26.64341626	     58.77859603	      0.00000000	      0.00000000	     11.49208988	     13.24374367	      2.50783872	      2.99745774	     12.31683078	      3.88999893	      7.95163821	      9.43906844	      8.01072172	      1.74213391	      7.54747092	      5.66542253	      6.06435769	      2.65878638	      3.17878487	      3.19253924	      8.74455135	      4.08297744	      7.68231990	      7.21560649	      1.51965819	      5.61294961	      4.14083074	      2.91875467	      2.45357709	      3.98718565	      4.09685343	      2.23858729	      1.55861354	      3.65586086	      5.55567863	      4.14716947	     22.64700489	     12.96618326	      3.62646617	      2.85421994	      4.08974770	     10.66644144	      6.59228976	      7.56187490	      8.13106127	     13.95211440	      6.47828721	     31.08478377	     42.35860200	      2.57654090	      2.83692969	      8.45125015	      4.33372005	     12.44599387	      2.00578057	      5.36567719	      1.70301188	     25.00518195	     25.00518195	      8.99959884	      8.99959884	     26.80424876	     26.80424876	    235.56226659	     61.67971684	     46.74646301	    -20.49635288	      5.87154129	     95.92978715	   -235.56226659	    -61.67971684	    -46.74646301	      2.19495005	     -8.43844528	     -0.31943386	    109.30503163	    -34.63502098	    -14.98157687	      5.38185867	     -2.09588523	     44.15135810	   -109.30503163	     34.63502098	     14.98157687	      0.40290006	      1.91694620	     -1.53229345	   -468.05424180	    -48.05818080	     63.96318070	     -1.02267462	      7.45557878	     -1.75291053	    468.05424180	     48.05818080	    -63.96318070	     26.78237337	     -8.22703723	    189.67135431	    -40.88394069	    -16.42733205	    -12.27154994	      0.58731206	     -1.56782133	      0.14182873	     40.88394069	     16.42733205	     12.27154994	     -5.39038955	      1.00754565	     16.61013583	     76.61157424	     25.70771594	    596.83926929	    238.03699488	      9.38419482	     -3.01661115	      0.00000000	      0.00000000	      0.00000000	      0.00000000	      0.00000000	      0.00000000	      0.00000001	      0.00000000	     19.10100000	   -108.32880000	      0.00000000
